<?xml version="1.0" standalone="no"?><!DOCTYPE svg PUBLIC "-//W3C//DTD SVG 1.1//EN" "http://www.w3.org/Graphics/SVG/1.1/DTD/svg11.dtd"><svg t="1709520315275" class="icon" viewBox="0 0 1024 1024" version="1.1" xmlns="http://www.w3.org/2000/svg" p-id="10853" xmlns:xlink="http://www.w3.org/1999/xlink" width="32" height="32"><path d="M384 213.312h42.688V256H384zM426.688 213.312h42.688V256h-42.688z" fill="#FABD00" p-id="10854"></path><path d="M469.312 213.312H512V256h-42.688zM426.688 256h42.688v42.688h-42.688z" fill="#F5A400" p-id="10855"></path><path d="M469.312 256H512v42.688h-42.688zM170.688 298.688h42.688v42.688h-42.688z" fill="#FABD00" p-id="10856"></path><path d="M213.312 298.688H256v42.688h-42.688zM256 298.688h42.688v42.688H256zM298.688 298.688h42.688v42.688h-42.688z" fill="#FABD00" p-id="10857"></path><path d="M341.312 298.688H384v42.688h-42.688zM384 298.688h42.688v42.688H384zM512 256h42.688v42.688H512z" fill="#FABD00" p-id="10858"></path><path d="M512 298.688h42.688v42.688H512z" fill="#F5A400" p-id="10859"></path><path d="M554.688 298.688h42.688v42.688h-42.688z" fill="#FABD00" p-id="10860"></path><path d="M810.688 298.688h42.688v42.688h-42.688z" fill="#F5A400" p-id="10861"></path><path d="M682.688 469.312h42.688V512h-42.688z" fill="#FABD00" p-id="10862"></path><path d="M725.312 469.312H768V512h-42.688z" fill="#FABD00" p-id="10863"></path><path d="M682.688 512h42.688v42.688h-42.688z" fill="#F5A400" p-id="10864"></path><path d="M725.312 512H768v42.688h-42.688z" fill="#FABD00" p-id="10865"></path><path d="M768 384h42.688v42.688H768z" fill="#F5A400" p-id="10866"></path><path d="M768 426.688h42.688v42.688H768z" fill="#FABD00" p-id="10867"></path><path d="M768 469.312h42.688V512H768z" fill="#FABD00" p-id="10868"></path><path d="M768 512h42.688v42.688H768zM682.688 554.688h42.688v42.688h-42.688z" fill="#F5A400" p-id="10869"></path><path d="M682.688 597.312h42.688V640h-42.688z" fill="#F5A400" p-id="10870"></path><path d="M725.312 554.688H768v42.688h-42.688z" fill="#FABD00" p-id="10871"></path><path d="M725.312 597.312H768V640h-42.688zM682.688 640h42.688v42.688h-42.688z" fill="#FABD00" p-id="10872"></path><path d="M725.312 640H768v42.688h-42.688zM768 554.688h42.688v42.688H768z" fill="#FABD00" p-id="10873"></path><path d="M768 597.312h42.688V640H768z" fill="#F5A400" p-id="10874"></path><path d="M768 640h42.688v42.688H768zM725.312 682.688H768v42.688h-42.688z" fill="#FABD00" p-id="10875"></path><path d="M768 682.688h42.688v42.688H768z" fill="#F5A400" p-id="10876"></path><path d="M810.688 384h42.688v42.688h-42.688zM810.688 426.688h42.688v42.688h-42.688z" fill="#FABD00" p-id="10877"></path><path d="M810.688 469.312h42.688V512h-42.688z" fill="#F5A400" p-id="10878"></path><path d="M810.688 512h42.688v42.688h-42.688zM810.688 554.688h42.688v42.688h-42.688z" fill="#FABD00" p-id="10879"></path><path d="M810.688 597.312h42.688V640h-42.688z" fill="#F5A400" p-id="10880"></path><path d="M810.688 640h42.688v42.688h-42.688z" fill="#FABD00" p-id="10881"></path><path d="M810.688 682.688h42.688v42.688h-42.688z" fill="#F5A400" p-id="10882"></path><path d="M810.688 725.312h42.688V768h-42.688zM853.312 384H896v42.688h-42.688z" fill="#FABD00" p-id="10883"></path><path d="M853.312 426.688H896v42.688h-42.688z" fill="#F5A400" p-id="10884"></path><path d="M853.312 469.312H896V512h-42.688zM853.312 512H896v42.688h-42.688zM896 512h42.688v42.688H896z" fill="#FABD00" p-id="10885"></path><path d="M853.312 554.688H896v42.688h-42.688z" fill="#F5A400" p-id="10886"></path><path d="M853.312 597.312H896V640h-42.688z" fill="#FABD00" p-id="10887"></path><path d="M896 554.688h42.688v42.688H896z" fill="#F5A400" p-id="10888"></path><path d="M896 597.312h42.688V640H896zM853.312 640H896v42.688h-42.688zM896 640h42.688v42.688H896z" fill="#FABD00" p-id="10889"></path><path d="M938.688 640h42.688v42.688h-42.688z" fill="#F5A400" p-id="10890"></path><path d="M853.312 682.688H896v42.688h-42.688z" fill="#FABD00" p-id="10891"></path><path d="M896 682.688h42.688v42.688H896z" fill="#F5A400" p-id="10892"></path><path d="M938.688 682.688h42.688v42.688h-42.688z" fill="#FABD00" p-id="10893"></path><path d="M853.312 725.312H896V768h-42.688z" fill="#F5A400" p-id="10894"></path><path d="M896 725.312h42.688V768H896zM42.688 384h42.688v42.688H42.688z" fill="#FABD00" p-id="10895"></path><path d="M85.312 384H128v42.688h-42.688zM128 384h42.688v42.688H128zM170.688 384h42.688v42.688h-42.688z" fill="#FABD00" p-id="10896"></path><path d="M213.312 384H256v42.688h-42.688zM256 384h42.688v42.688H256zM298.688 384h42.688v42.688h-42.688z" fill="#FABD00" p-id="10897"></path><path d="M341.312 384H384v42.688h-42.688z" fill="#F5A400" p-id="10898"></path><path d="M384 384h42.688v42.688H384zM426.688 384h42.688v42.688h-42.688z" fill="#FABD00" p-id="10899"></path><path d="M469.312 384H512v42.688h-42.688zM42.688 426.688h42.688v42.688H42.688z" fill="#FABD00" p-id="10900"></path><path d="M85.312 426.688H128v42.688h-42.688z" fill="#FABD00" p-id="10901"></path><path d="M128.384 426.24h42.688v42.688h-42.688zM171.072 426.24h42.688v42.688h-42.688z" fill="#F5A400" p-id="10902"></path><path d="M213.312 426.688H256v42.688h-42.688zM256 426.688h42.688v42.688H256zM298.688 426.688h42.688v42.688h-42.688z" fill="#FABD00" p-id="10903"></path><path d="M341.312 426.688H384v42.688h-42.688zM384 426.688h42.688v42.688H384zM426.688 426.688h42.688v42.688h-42.688z" fill="#F5A400" p-id="10904"></path><path d="M469.312 426.688H512v42.688h-42.688zM42.688 469.312h42.688V512H42.688zM213.312 469.312H256V512h-42.688zM298.688 469.312h42.688V512h-42.688zM384 469.312h42.688V512H384z" fill="#FABD00" p-id="10905"></path><path d="M426.688 469.312h42.688V512h-42.688zM512 384h42.688v42.688H512zM512 426.688h42.688v42.688H512z" fill="#FABD00" p-id="10906"></path><path d="M512 469.312h42.688V512H512z" fill="#F5A400" p-id="10907"></path><path d="M42.688 512h42.688v42.688H42.688zM213.312 512H256v42.688h-42.688z" fill="#FABD00" p-id="10908"></path><path d="M298.688 512h42.688v42.688h-42.688zM384 512h42.688v42.688H384z" fill="#F5A400" p-id="10909"></path><path d="M426.688 512h42.688v42.688h-42.688zM554.688 384h42.688v42.688h-42.688zM554.688 426.688h42.688v42.688h-42.688z" fill="#FABD00" p-id="10910"></path><path d="M597.312 426.688H640v42.688h-42.688z" fill="#FABD00" p-id="10911"></path><path d="M597.312 469.312H640V512h-42.688z" fill="#FABD00" p-id="10912"></path><path d="M554.688 512h42.688v42.688h-42.688z" fill="#F5A400" p-id="10913"></path><path d="M597.312 512H640v42.688h-42.688zM42.688 554.688h42.688v42.688H42.688zM128 554.688h42.688v42.688H128zM213.312 554.688H256v42.688h-42.688z" fill="#FABD00" p-id="10914"></path><path d="M298.688 554.688h42.688v42.688h-42.688z" fill="#F5A400" p-id="10915"></path><path d="M384 554.688h42.688v42.688H384z" fill="#FABD00" p-id="10916"></path><path d="M426.688 554.688h42.688v42.688h-42.688z" fill="#F5A400" p-id="10917"></path><path d="M128 597.312h42.688V640H128zM213.312 597.312H256V640h-42.688zM298.688 597.312h42.688V640h-42.688zM426.688 597.312h42.688V640h-42.688zM512 554.688h42.688v42.688H512z" fill="#FABD00" p-id="10918"></path><path d="M512 597.312h42.688V640H512z" fill="#F5A400" p-id="10919"></path><path d="M85.312 640H128v42.688h-42.688zM128 640h42.688v42.688H128zM170.688 640h42.688v42.688h-42.688z" fill="#FABD00" p-id="10920"></path><path d="M213.312 640H256v42.688h-42.688z" fill="#F5A400" p-id="10921"></path><path d="M256 640h42.688v42.688H256zM298.688 640h42.688v42.688h-42.688z" fill="#FABD00" p-id="10922"></path><path d="M341.312 640H384v42.688h-42.688zM384 640h42.688v42.688H384z" fill="#FABD00" p-id="10923"></path><path d="M426.688 640h42.688v42.688h-42.688z" fill="#F5A400" p-id="10924"></path><path d="M469.312 640H512v42.688h-42.688z" fill="#F5A400" p-id="10925"></path><path d="M512 640h42.688v42.688H512zM597.312 554.688H640v42.688h-42.688z" fill="#FABD00" p-id="10926"></path><path d="M597.312 597.312H640V640h-42.688zM554.688 640h42.688v42.688h-42.688z" fill="#FABD00" p-id="10927"></path><path d="M597.312 640H640v42.688h-42.688zM170.688 682.688h42.688v42.688h-42.688z" fill="#FABD00" p-id="10928"></path><path d="M213.312 682.688H256v42.688h-42.688zM256 682.688h42.688v42.688H256zM298.688 682.688h42.688v42.688h-42.688z" fill="#FABD00" p-id="10929"></path><path d="M341.312 682.688H384v42.688h-42.688zM384 682.688h42.688v42.688H384zM426.688 682.688h42.688v42.688h-42.688z" fill="#FABD00" p-id="10930"></path><path d="M469.312 682.688H512v42.688h-42.688zM512 682.688h42.688v42.688H512zM554.688 682.688h42.688v42.688h-42.688z" fill="#FABD00" p-id="10931"></path><path d="M597.312 682.688H640v42.688h-42.688z" fill="#F5A400" p-id="10932"></path><path d="M341.312 725.312H384V768h-42.688zM384 725.312h42.688V768H384zM426.688 725.312h42.688V768h-42.688z" fill="#FABD00" p-id="10933"></path><path d="M469.312 725.312H512V768h-42.688zM384 768h42.688v42.688H384zM426.688 768h42.688v42.688h-42.688z" fill="#FABD00" p-id="10934"></path><path d="M469.312 768H512v42.688h-42.688zM512 725.312h42.688V768H512zM512 768h42.688v42.688H512zM554.688 725.312h42.688V768h-42.688z" fill="#FABD00" p-id="10935"></path><path d="M597.312 725.312H640V768h-42.688zM85.312 341.312H128V384h-42.688zM128 341.312h42.688V384H128zM170.688 341.312h42.688V384h-42.688z" fill="#FABD00" p-id="10936"></path><path d="M213.312 341.312H256V384h-42.688zM256 341.312h42.688V384H256z" fill="#FABD00" p-id="10937"></path><path d="M298.688 341.312h42.688V384h-42.688z" fill="#F5A400" p-id="10938"></path><path d="M341.312 341.312H384V384h-42.688zM384 341.312h42.688V384H384zM426.688 341.312h42.688V384h-42.688z" fill="#FABD00" p-id="10939"></path><path d="M469.312 341.312H512V384h-42.688zM597.312 341.312H640V384h-42.688z" fill="#FABD00" p-id="10940"></path><path d="M640 469.312h42.688V512H640z" fill="#F5A400" p-id="10941"></path><path d="M640 512h42.688v42.688H640zM640 554.688h42.688v42.688H640z" fill="#FABD00" p-id="10942"></path><path d="M640 597.312h42.688V640H640z" fill="#FABD00" p-id="10943"></path><path d="M640 640h42.688v42.688H640z" fill="#F5A400" p-id="10944"></path><path d="M768 341.312h42.688V384H768zM640 682.688h42.688v42.688H640z" fill="#FABD00" p-id="10945"></path><path d="M810.688 341.312h42.688V384h-42.688z" fill="#F5A400" p-id="10946"></path><path d="M85.312 469.312H128V512h-42.688z" fill="#FABD00" p-id="10947"></path><path d="M128.384 468.928h42.688v42.688h-42.688zM171.072 468.928h42.688v42.688h-42.688z" fill="#F5A400" p-id="10948"></path><path d="M256 469.312h42.688V512H256z" fill="#FABD00" p-id="10949"></path><path d="M341.312 469.312H384V512h-42.688zM469.312 469.312H512V512h-42.688z" fill="#F5A400" p-id="10950"></path><path d="M85.312 512H128v42.688h-42.688zM128 512h42.688v42.688H128zM170.688 512h42.688v42.688h-42.688zM256 512h42.688v42.688H256zM341.312 512H384v42.688h-42.688zM469.312 512H512v42.688h-42.688zM512 512h42.688v42.688H512zM554.688 469.312h42.688V512h-42.688zM85.312 554.688H128v42.688h-42.688zM170.688 554.688h42.688v42.688h-42.688zM256 554.688h42.688v42.688H256z" fill="#FABD00" p-id="10951"></path><path d="M341.312 554.688H384v42.688h-42.688zM469.312 554.688H512v42.688h-42.688z" fill="#F5A400" p-id="10952"></path><path d="M85.312 597.312H128V640h-42.688zM170.688 597.312h42.688V640h-42.688z" fill="#FABD00" p-id="10953"></path><path d="M256 597.312h42.688V640H256z" fill="#F5A400" p-id="10954"></path><path d="M341.312 597.312H384V640h-42.688z" fill="#FABD00" p-id="10955"></path><path d="M384 597.312h42.688V640H384z" fill="#F5A400" p-id="10956"></path><path d="M469.312 597.312H512V640h-42.688z" fill="#FABD00" p-id="10957"></path><path d="M554.688 554.688h42.688v42.688h-42.688z" fill="#F5A400" p-id="10958"></path><path d="M554.688 597.312h42.688V640h-42.688zM256 725.312h42.688V768H256zM298.688 725.312h42.688V768h-42.688z" fill="#FABD00" p-id="10959"></path><path d="M384 170.688h42.688v42.688H384zM426.688 170.688h42.688v42.688h-42.688z" p-id="10960"></path><path d="M469.312 170.688H512v42.688h-42.688zM341.312 213.312H384V256h-42.688zM170.688 256h42.688v42.688h-42.688z" p-id="10961"></path><path d="M213.312 256H256v42.688h-42.688zM256 256h42.688v42.688H256zM298.688 256h42.688v42.688h-42.688z" p-id="10962"></path><path d="M341.312 256H384v42.688h-42.688zM384 256h42.688v42.688H384zM85.312 298.688H128v42.688h-42.688zM128 298.688h42.688v42.688H128zM426.688 298.688h42.688v42.688h-42.688z" p-id="10963"></path><path d="M469.312 298.688H512v42.688h-42.688zM512 213.312h42.688V256H512zM554.688 256h42.688v42.688h-42.688zM597.312 298.688H640v42.688h-42.688zM768 298.688h42.688v42.688H768zM810.688 256h42.688v42.688h-42.688zM853.312 213.312H896V256h-42.688z" p-id="10964"></path><path d="M853.312 256H896v42.688h-42.688zM853.312 298.688H896v42.688h-42.688zM682.688 426.688h42.688v42.688h-42.688zM725.312 384H768v42.688h-42.688z" p-id="10965"></path><path d="M725.312 426.688H768v42.688h-42.688zM682.688 682.688h42.688v42.688h-42.688z" p-id="10966"></path><path d="M725.312 725.312H768V768h-42.688zM768 725.312h42.688V768H768zM810.688 768h42.688v42.688h-42.688zM896 384h42.688v42.688H896zM896 426.688h42.688v42.688H896z" p-id="10967"></path><path d="M896 469.312h42.688V512H896zM938.688 512h42.688v42.688h-42.688zM938.688 554.688h42.688v42.688h-42.688z" p-id="10968"></path><path d="M938.688 597.312h42.688V640h-42.688zM853.312 768H896v42.688h-42.688zM597.312 384H640v42.688h-42.688zM42.688 597.312h42.688V640H42.688zM42.688 640h42.688v42.688H42.688zM85.312 682.688H128v42.688h-42.688zM128 682.688h42.688v42.688H128zM170.688 725.312h42.688V768h-42.688zM426.688 810.688h42.688v42.688h-42.688z" p-id="10969"></path><path d="M469.312 810.688H512v42.688h-42.688zM256 768h42.688v42.688H256zM298.688 768h42.688v42.688h-42.688zM597.312 768H640v42.688h-42.688zM512 810.688h42.688v42.688H512z" p-id="10970"></path><path d="M554.688 768h42.688v42.688h-42.688zM896 768h42.688v42.688H896zM938.688 725.312h42.688V768h-42.688zM42.688 341.312h42.688V384H42.688zM0 384h42.688v42.688H0zM0 426.688h42.688v42.688H0z" p-id="10971"></path><path d="M0 469.312h42.688V512H0zM512 341.312h42.688V384H512zM0 512h42.688v42.688H0zM554.688 341.312h42.688V384h-42.688zM640 341.312h42.688V384H640zM640 384h42.688v42.688H640zM640 426.688h42.688v42.688H640zM0 554.688h42.688v42.688H0zM725.312 341.312H768V384h-42.688zM640 725.312h42.688V768H640zM853.312 341.312H896V384h-42.688zM981.312 640H1024v42.688h-42.688zM981.312 682.688H1024v42.688h-42.688zM213.312 725.312H256V768h-42.688zM341.312 768H384v42.688h-42.688zM384 810.688h42.688v42.688H384z" p-id="10972"></path></svg>